<?xml version="1.0" standalone="no"?>
<!DOCTYPE svg PUBLIC "-//W3C//DTD SVG 20010904//EN"
 "http://www.w3.org/TR/2001/REC-SVG-20010904/DTD/svg10.dtd">
<svg version="1.0" xmlns="http://www.w3.org/2000/svg"
 width="327.000000pt" height="326.000000pt" viewBox="0 0 327.000000 326.000000"
 preserveAspectRatio="xMidYMid meet">

<g transform="translate(0.000000,326.000000) scale(0.100000,-0.100000)"
fill="#000000" stroke="none">
<path d="M1365 3224 c-185 -25 -220 -32 -212 -40 2 -3 46 2 98 10 196 30 266
30 512 -2 31 -5 57 -5 57 -2 0 19 -366 47 -455 34z"/>
<path d="M1866 3181 c-28 -6 -27 -7 19 -19 26 -7 50 -11 52 -9 2 3 -9 8 -24
13 l-28 8 35 6 c33 7 34 7 5 8 -16 0 -43 -3 -59 -7z"/>
<path d="M1118 3173 c7 -3 16 -2 19 1 4 3 -2 6 -13 5 -11 0 -14 -3 -6 -6z"/>
<path d="M1978 3173 c6 -2 18 -2 25 0 6 3 1 5 -13 5 -14 0 -19 -2 -12 -5z"/>
<path d="M2036 3161 c-4 -5 3 -7 14 -4 23 6 26 13 6 13 -8 0 -17 -4 -20 -9z"/>
<path d="M2088 3153 c7 -3 16 -2 19 1 4 3 -2 6 -13 5 -11 0 -14 -3 -6 -6z"/>
<path d="M1960 3140 c8 -5 20 -10 25 -10 6 0 3 5 -5 10 -8 5 -19 10 -25 10 -5
0 -3 -5 5 -10z"/>
<path d="M2145 3140 c27 -12 43 -12 25 0 -8 5 -22 9 -30 9 -10 0 -8 -3 5 -9z"/>
<path d="M905 3111 c-10 -17 15 -23 31 -7 14 15 14 16 -5 16 -11 0 -22 -4 -26
-9z"/>
<path d="M2240 3115 c0 -10 29 -24 34 -17 3 6 -3 12 -14 15 -11 3 -20 4 -20 2z"/>
<path d="M870 3090 c-9 -6 -10 -10 -3 -10 6 0 15 5 18 10 8 12 4 12 -15 0z"/>
<path d="M2300 3090 c8 -5 20 -10 25 -10 6 0 3 5 -5 10 -8 5 -19 10 -25 10 -5
0 -3 -5 5 -10z"/>
<path d="M1658 3073 c6 -2 18 -2 25 0 6 3 1 5 -13 5 -14 0 -19 -2 -12 -5z"/>
<path d="M2340 3070 c0 -5 7 -10 15 -10 8 0 55 -21 104 -46 62 -32 88 -51 84
-60 -4 -10 3 -14 23 -14 25 0 26 2 14 14 -15 15 -221 126 -233 126 -4 0 -7 -4
-7 -10z"/>
<path d="M1778 3063 c7 -3 16 -2 19 1 4 3 -2 6 -13 5 -11 0 -14 -3 -6 -6z"/>
<path d="M1628 3043 c12 -2 30 -2 40 0 9 3 -1 5 -23 4 -22 0 -30 -2 -17 -4z"/>
<path d="M1798 3043 c7 -3 16 -2 19 1 4 3 -2 6 -13 5 -11 0 -14 -3 -6 -6z"/>
<path d="M1853 3033 c9 -2 25 -2 35 0 9 3 1 5 -18 5 -19 0 -27 -2 -17 -5z"/>
<path d="M1923 3023 c9 -2 23 -2 30 0 6 3 -1 5 -18 5 -16 0 -22 -2 -12 -5z"/>
<path d="M1970 3019 c0 -3 26 -12 58 -19 265 -59 578 -233 772 -430 74 -75
193 -232 212 -280 6 -14 25 -59 44 -100 99 -225 123 -324 125 -525 1 -136 2
-147 14 -120 13 28 14 22 15 -73 0 -78 -6 -127 -25 -200 -43 -169 -110 -347
-126 -336 -5 3 -8 2 -7 -3 6 -17 -25 -73 -36 -66 -6 3 -8 3 -4 -2 9 -10 -9
-45 -23 -45 -6 0 -9 8 -5 17 5 16 4 16 -7 0 -135 -201 -268 -347 -399 -440
-72 -51 -106 -69 -94 -48 8 12 -1 7 -133 -69 -40 -24 -109 -55 -152 -70 -43
-15 -75 -31 -71 -35 4 -5 -1 -5 -10 -2 -10 3 -39 0 -65 -8 -75 -22 -227 -44
-359 -51 -109 -6 -167 -2 -319 22 -54 9 -195 55 -275 90 -95 41 -129 44 -45 3
33 -16 56 -29 51 -29 -22 0 -149 52 -192 79 -34 21 -52 27 -61 20 -8 -7 -18
-7 -30 0 -10 6 -13 11 -8 11 9 0 -204 143 -215 144 -14 2 -223 219 -263 275
-68 92 -172 269 -190 321 -8 25 -23 81 -32 124 -9 44 -18 82 -20 86 -2 3 -6
37 -10 75 -6 74 -15 100 -15 44 0 -70 31 -233 60 -322 38 -111 80 -207 90
-204 4 1 31 -33 61 -76 29 -43 94 -122 143 -175 92 -97 243 -225 257 -217 4 3
10 -2 13 -11 4 -9 9 -14 12 -11 3 2 17 -6 31 -19 66 -61 441 -219 543 -228 19
-2 80 -9 135 -16 55 -8 182 -14 283 -14 165 -1 177 -2 125 -12 -32 -6 -47 -12
-33 -12 60 -3 304 64 453 124 162 65 427 220 419 246 -1 5 2 7 7 4 14 -9 184
148 253 232 83 104 142 198 199 317 53 110 59 116 30 33 -57 -165 -133 -305
-237 -434 -82 -101 -136 -153 -243 -234 -40 -30 -88 -67 -106 -83 -40 -33
-189 -104 -300 -143 -44 -15 -89 -33 -100 -40 -27 -16 -142 -34 -278 -44 -101
-6 -105 -7 -37 -8 253 -5 537 84 775 242 104 70 258 215 333 315 161 213 259
496 283 818 14 182 7 303 -27 470 -14 70 -28 139 -31 153 -18 104 -69 267 -79
257 -3 -3 2 -22 10 -43 22 -56 57 -190 48 -178 -5 5 -19 34 -31 64 -29 70
-113 219 -164 290 -48 66 -139 166 -149 163 -4 -2 -24 19 -44 45 -78 98 -193
207 -178 168 4 -10 0 -13 -13 -11 -10 2 -22 4 -26 4 -5 1 -5 5 -2 11 3 5 0 7
-8 4 -8 -3 -18 0 -23 7 -5 8 -3 10 7 5 8 -4 3 1 -10 12 -14 11 -31 17 -40 14
-9 -3 -12 -1 -7 6 5 8 1 10 -10 5 -13 -5 -15 -3 -9 7 5 9 4 11 -3 6 -7 -4 -33
4 -59 18 -59 31 -216 92 -263 101 -19 4 -43 14 -52 22 -16 15 -108 25 -108 12z
m1239 -1391 c1 -20 -2 -39 -6 -41 -5 -3 -9 25 -10 62 -1 46 1 58 7 41 4 -14 8
-42 9 -62z m-224 -817 c3 -6 -5 -15 -17 -21 -21 -10 -21 -10 -6 3 10 8 15 17
11 20 -3 4 -4 7 0 7 3 0 8 -4 12 -9z m-74 -114 l-24 -22 19 27 c10 14 21 24
23 22 3 -3 -6 -15 -18 -27z"/>
<path d="M2365 2965 c22 -18 86 -53 70 -38 -5 6 -28 20 -50 32 -22 13 -31 15
-20 6z"/>
<path d="M595 2933 c-11 -2 -25 -14 -31 -27 -10 -21 -9 -22 12 -12 12 6 27 19
33 28 6 10 10 17 9 17 -2 -1 -12 -4 -23 -6z"/>
<path d="M2610 2922 c6 -13 14 -21 18 -18 3 4 -2 14 -12 24 -18 16 -18 16 -6
-6z"/>
<path d="M2640 2900 c0 -5 5 -10 11 -10 5 0 7 5 4 10 -3 6 -8 10 -11 10 -2 0
-4 -4 -4 -10z"/>
<path d="M2710 2831 c30 -28 58 -50 62 -51 13 0 -77 87 -97 94 -11 4 5 -15 35
-43z"/>
<path d="M470 2815 c-24 -25 -42 -45 -39 -45 3 0 25 20 49 45 24 25 42 45 39
45 -3 0 -25 -20 -49 -45z"/>
<path d="M759 2813 c-13 -15 -12 -15 9 -4 23 12 28 21 13 21 -5 0 -15 -7 -22
-17z"/>
<path d="M704 2768 l-19 -23 23 19 c21 18 27 26 19 26 -2 0 -12 -10 -23 -22z"/>
<path d="M395 2742 c-5 -4 -14 -14 -20 -23 -5 -9 -31 -43 -56 -75 -53 -68 -84
-114 -76 -114 3 0 31 36 62 79 30 44 67 88 82 99 14 10 24 24 22 30 -2 6 -8 8
-14 4z"/>
<path d="M579 2703 c-13 -16 -12 -17 4 -4 9 7 17 15 17 17 0 8 -8 3 -21 -13z"/>
<path d="M2851 2694 c14 -17 32 -19 27 -2 -2 6 -12 12 -22 14 -14 2 -15 0 -5
-12z"/>
<path d="M530 2665 c-7 -8 -9 -15 -4 -15 5 0 -25 -34 -66 -75 -40 -40 -77 -72
-80 -70 -4 3 -16 -5 -26 -18 -16 -18 -16 -19 -1 -8 22 17 22 4 0 -23 -15 -18
-14 -18 8 2 14 12 29 19 33 15 4 -5 7 -3 6 2 -5 21 0 36 10 30 6 -3 13 2 16
12 4 10 32 44 62 75 31 32 57 64 58 73 3 19 0 19 -16 0z"/>
<path d="M190 2470 c-19 -15 -22 -22 -13 -31 18 -18 43 -3 41 26 -1 14 -3 25
-3 25 0 0 -11 -9 -25 -20z"/>
<path d="M3032 2435 c6 -14 15 -25 20 -25 5 0 1 11 -8 25 -9 14 -18 25 -20 25
-2 0 2 -11 8 -25z"/>
<path d="M282 2363 c-26 -38 -34 -53 -29 -53 2 0 16 18 31 40 29 45 28 56 -2
13z"/>
<path d="M300 2340 c-6 -11 -8 -20 -6 -20 3 0 10 9 16 20 6 11 8 20 6 20 -3 0
-10 -9 -16 -20z"/>
<path d="M245 2239 c-9 -17 -15 -33 -13 -35 3 -2 12 12 21 31 21 43 13 47 -8
4z"/>
<path d="M165 2209 c-4 -6 -5 -12 -2 -15 2 -3 7 2 10 11 7 17 1 20 -8 4z"/>
<path d="M86 2195 c-3 -8 -1 -15 4 -15 6 0 10 7 10 15 0 8 -2 15 -4 15 -2 0
-6 -7 -10 -15z"/>
<path d="M145 2169 c-4 -6 -5 -12 -2 -15 2 -3 7 2 10 11 7 17 1 20 -8 4z"/>
<path d="M196 2135 c-9 -26 -7 -32 5 -12 6 10 9 21 6 23 -2 3 -7 -2 -11 -11z"/>
<path d="M1895 2124 c-358 -37 -723 -153 -1037 -330 -118 -66 -132 -79 -118
-104 12 -23 20 -21 116 36 234 138 579 266 850 315 154 28 460 31 569 6 168
-39 185 -41 195 -31 48 48 -145 100 -400 108 -74 2 -153 2 -175 0z"/>
<path d="M176 2085 c-9 -26 -7 -32 5 -12 6 10 9 21 6 23 -2 3 -7 -2 -11 -11z"/>
<path d="M51 2024 c0 -11 3 -14 6 -6 3 7 2 16 -1 19 -3 4 -6 -2 -5 -13z"/>
<path d="M41 1958 c0 -9 -7 -18 -13 -21 -10 -4 -10 -7 -1 -17 10 -11 13 -10
19 3 3 9 4 24 1 34 -4 15 -5 15 -6 1z"/>
<path d="M111 1874 c0 -11 3 -14 6 -6 3 7 2 16 -1 19 -3 4 -6 -2 -5 -13z"/>
<path d="M34 1765 c0 -66 1 -92 3 -57 2 34 2 88 0 120 -2 31 -3 3 -3 -63z"/>
<path d="M1820 1870 c-272 -26 -629 -139 -942 -296 -108 -54 -111 -67 -35
-140 211 -205 445 -296 757 -295 74 0 171 5 215 11 110 14 313 65 414 103 87
33 115 57 94 78 -9 9 -45 1 -150 -34 -127 -42 -313 -87 -362 -87 -16 0 -10 9
30 46 133 126 159 338 59 492 -21 33 -36 63 -33 66 10 10 243 7 333 -4 47 -6
130 -23 185 -37 129 -33 160 -35 160 -8 0 16 -16 25 -81 47 -45 15 -121 35
-170 44 -102 19 -349 26 -474 14z m-133 -119 c76 -75 66 -220 -18 -284 -157
-119 -362 23 -309 214 10 35 13 37 93 57 189 50 197 50 234 13z m-513 -188
c-9 -115 25 -209 110 -302 17 -19 24 -32 16 -29 -8 3 -44 15 -80 27 -85 28
-222 111 -300 183 l-62 57 73 37 c91 46 220 102 236 103 9 1 11 -19 7 -76z"/>
<path d="M92 1789 c-7 -36 -12 -74 -11 -85 1 -10 7 15 15 56 8 41 12 80 10 85
-1 6 -8 -20 -14 -56z"/>
<path d="M73 1630 c0 -30 2 -43 4 -27 2 15 2 39 0 55 -2 15 -4 2 -4 -28z"/>
<path d="M42 1565 c0 -16 2 -22 5 -12 2 9 2 23 0 30 -3 6 -5 -1 -5 -18z"/>
<path d="M57 1475 c3 -22 7 -42 9 -44 8 -9 2 45 -6 64 -7 14 -8 8 -3 -20z"/>
<path d="M3172 1430 c0 -50 1 -52 8 -21 5 19 4 44 0 55 -6 15 -9 5 -8 -34z"/>
<path d="M3148 1308 c-11 -40 -14 -66 -8 -72 7 -7 10 -1 11 15 0 13 2 31 4 39
23 98 17 111 -7 18z"/>
<path d="M3128 1203 c5 -21 7 -23 10 -9 2 10 0 22 -6 28 -6 6 -7 0 -4 -19z"/>
<path d="M3067 1085 c-21 -44 -22 -60 -1 -22 19 35 28 30 15 -7 -6 -14 -8 -26
-5 -26 8 0 36 72 30 78 -3 3 -6 -1 -7 -9 0 -9 -3 -8 -8 4 -6 15 -9 12 -24 -18z"/>
<path d="M260 760 c6 -11 13 -20 16 -20 2 0 0 9 -6 20 -6 11 -13 20 -16 20 -2
0 0 -9 6 -20z"/>
<path d="M495 670 c10 -11 20 -20 23 -20 3 0 -3 9 -13 20 -10 11 -20 20 -23
20 -3 0 3 -9 13 -20z"/>
<path d="M570 588 c24 -27 45 -48 47 -48 8 0 0 9 -44 50 l-48 45 45 -47z"/>
<path d="M375 590 c10 -11 20 -20 23 -20 3 0 -3 9 -13 20 -10 11 -20 20 -23
20 -3 0 3 -9 13 -20z"/>
<path d="M2724 558 l-29 -33 33 29 c17 17 32 31 32 33 0 8 -8 1 -36 -29z"/>
<path d="M470 485 c35 -36 67 -65 69 -65 3 0 -24 29 -59 65 -35 36 -67 65 -69
65 -3 0 24 -29 59 -65z"/>
<path d="M720 446 c0 -2 8 -10 18 -17 15 -13 16 -12 3 4 -13 16 -21 21 -21 13z"/>
<path d="M770 406 c0 -2 8 -10 18 -17 15 -13 16 -12 3 4 -13 16 -21 21 -21 13z"/>
<path d="M2539 393 c-13 -16 -12 -17 4 -4 16 13 21 21 13 21 -2 0 -10 -8 -17
-17z"/>
<path d="M2506 373 c-6 -14 -5 -15 5 -6 7 7 10 15 7 18 -3 3 -9 -2 -12 -12z"/>
<path d="M600 366 c0 -2 8 -10 18 -17 15 -13 16 -12 3 4 -13 16 -21 21 -21 13z"/>
<path d="M640 336 c0 -2 8 -10 18 -17 15 -13 16 -12 3 4 -13 16 -21 21 -21 13z"/>
<path d="M880 326 c0 -3 9 -10 20 -16 11 -6 20 -8 20 -6 0 3 -9 10 -20 16 -11
6 -20 8 -20 6z"/>
<path d="M930 296 c0 -3 9 -10 20 -16 11 -6 20 -8 20 -6 0 3 -9 10 -20 16 -11
6 -20 8 -20 6z"/>
<path d="M1311 96 c2 -2 47 -15 99 -29 73 -20 127 -27 230 -30 74 -3 113 -2
85 2 l-50 7 45 5 c25 2 -18 5 -95 5 -112 0 -157 5 -222 22 -80 22 -100 26 -92
18z"/>
<path d="M1228 73 c7 -3 16 -2 19 1 4 3 -2 6 -13 5 -11 0 -14 -3 -6 -6z"/>
<path d="M1268 63 c6 -2 18 -2 25 0 6 3 1 5 -13 5 -14 0 -19 -2 -12 -5z"/>
<path d="M1343 53 c9 -2 25 -2 35 0 9 3 1 5 -18 5 -19 0 -27 -2 -17 -5z"/>
</g>
</svg>
